# xmcd
# 
# Track frame offsets:
#     150
#     7910
#     22937
#     40087
#     57430
#     70560
#     92430
#     108429
#     123295
#     135942
#     148827
#     164690
#     177792
#     192910
#     204440
#     217267
#     237195
#     252087
#     267997
#     281942
# 
# Disc length: 3968
# 
# Revision: 2
# Processed by: cddbd v1.5.2PL0 Copyright (c) Steve Scherf et al.
# Submitted via: fre:ac v1.0.17
# 
DISCID=1b0f7e14
DTITLE=Willie Nelson - Revolutions Of Time: Exodus
DYEAR=0
DGENRE=
TTITLE0=Nobody Slides, My Friend
TTITLE1=Little Old Fashioned Karma
TTITLE2=Harbor Lights
TTITLE3=Without a Song
TTITLE4=Good Time Charlie's Got the Blues
TTITLE5=City Of New Orleans
TTITLE6=Who'll Buy My Memories
TTITLE7=Write Your Own Songs
TTITLE8=Forgiving You Was Easy
TTITLE9=Me and Paul
TTITLE10=When I Dream
TTITLE11=My Own Peculiar Way
TTITLE12=Living In the Promiseland
TTITLE13=There Is No Easy Way (But There Is a Way)
TTITLE14=Ole Buttermilk Sky
TTITLE15=A Horse Called Music
TTITLE16=Nothing I Can Do About It Now
TTITLE17=Is the Better Part Over
TTITLE18=Ain't Necessarily So
TTITLE19=Still Is Still Moving To Me
EXTD=
EXTT0=
EXTT1=
EXTT2=
EXTT3=
EXTT4=
EXTT5=
EXTT6=
EXTT7=
EXTT8=
EXTT9=
EXTT10=
EXTT11=
EXTT12=
EXTT13=
EXTT14=
EXTT15=
EXTT16=
EXTT17=
EXTT18=
EXTT19=
PLAYORDER=
